<svg version="1" xmlns="http://www.w3.org/2000/svg" width="933.333" height="933.333" viewBox="0 0 700.000000 700.000000"><path d="M340.7 11.6c-.1.1-5 .5-10.8.8-5.8.4-11.6.8-13 1.1-1.3.2-4.9.6-8 1-3.1.3-6.6.7-7.7 1-1.1.2-3.5.6-5.3.9-2.9.4-6.5 1.2-19.9 4-14.6 3.1-38.9 11-53 17.3-16.5 7.4-23.7 10.8-25.1 12-.8.7-1.9 1.3-2.3 1.3-1.1 0-18.8 10.4-27.6 16.3-30.3 20.2-58.6 46.8-80.4 75.7-3.1 4.1-5.9 7.9-6.4 8.5-2 2.7-15.4 23.9-19 30.1-4.2 7.2-15.7 29.9-18.4 36.4-.9 1.9-2.7 6.2-4.1 9.5-4.3 9.9-12.9 36.7-15.2 47-.3 1.1-.8 3.3-1.2 5-.4 1.6-.7 3.2-.8 3.5-.1.3-.5 2.5-.9 5-.5 2.5-1 5.4-1.2 6.5-.8 3.7-1.3 7-1.9 11.5-.3 2.5-.8 5.6-1 7-2.6 15.5-2.6 63.8 0 79 .2 1.4.7 5 1 8 .3 3 .8 6.2 1 7 .2.8.7 3.1 1 5 .3 1.9.8 4.8 1.1 6.5 2.5 14.6 12.2 46 19.9 64C46 493 56.8 514.9 58.1 516c.3.3.8 1.3 1.2 2.2.9 2.6 15.1 24.1 21.5 32.8 39.7 53.5 97.6 95.5 160.7 116.5 14.7 4.9 36 10.4 46.5 12 .8.2 2.9.5 4.5.8 4.5.9 14.9 2.2 26 3.4 9.4 1 46 .9 56 0 19.3-1.9 23-2.5 37.3-5.3 53.9-10.7 106-35.5 148.2-70.8 15-12.5 36.4-34.4 48.3-49.6 23.1-29.1 46.7-73.1 58.7-109 5.8-17.5 11.7-42.2 13.5-56.6.4-2.7.8-5.6 1-6.4.2-.8.7-5.1 1-9.5.4-4.4.8-9.6 1.1-11.5.5-4.3.5-37-.1-42.5-.2-2.2-.7-7.8-1-12.5-.4-4.7-.8-8.7-1-9-.1-.3-.6-3.2-.9-6.5-.4-3.3-.9-6.7-1.1-7.5-.2-.8-.7-3.1-1-5-2.3-13.3-10.5-43.3-14.4-52.5-.5-1.1-2.4-5.8-4.2-10.5-4.3-11.4-15.2-33.3-22.9-46.1-26.6-44.1-63-81.5-106-109.1-30.3-19.4-67.6-35.3-102-43.3-4.2-1-22.4-4.5-25.2-4.9-11.4-1.5-13.6-1.8-15.8-2.2-6.4-1-46.4-2.5-47.3-1.8zM516 119.3c0 2-.5 3.4-1.2 3.4-2.1 0-13.1 1.3-15.8 1.8-6.7 1.3-8.9 1.8-14 3.3-3 .9-6.2 2.1-7 2.7-.8.6-2.7 1.6-4.1 2.2-3.6 1.5-6.8 5.9-12.2 16.8-4.4 8.8-6.2 14.7-7.2 24.3-.3 2.6-.7 6.7-1 9.2-.2 2.5-.5 67-.5 143.5-.2 147.7-.2 148.3-5 167.7-2.3 9.4-6.4 20.6-9.4 25.8-9.4 16.3-28.1 33.3-47.4 43-12.2 6-34.2 12.7-48.2 14.5-2.5.3-6.1.8-8 1-18.3 2.5-50.1 2.2-64.5-.6-2.7-.5-6.2-1.2-7.6-1.4-19.2-3.4-44.9-16.2-58-28.8-4.9-4.7-11.9-13-11.9-14.1 0-.5-.8-2-1.9-3.4-1-1.5-2.8-5.6-3.9-9.2-4-12.3-4.6-21.1-2.2-32.4 3-14.4 22.1-25.7 43.4-25.9 17.1-.1 29.8 4.3 39.9 13.6 13.2 12.4 16.3 34 6.8 48.9-1.6 2.5-5 8.5-7.5 13.3-5.1 9.6-5.4 12.9-1.6 19 4 6.5 16.3 10.1 31 9.1 20.7-1.4 29.3-6.9 38.2-24.4 5.1-9.9 7.3-17 8.3-27.1.9-8.6.9-331.9 0-341.2-.4-4.1-.9-8.1-1-8.9-2.9-13.9-7-22.6-12.9-27.5-7.8-6.3-21.6-11.3-36.6-13.1-3-.3-6.4-.8-7.4-1-1.1-.2-4.4-.4-7.2-.5-2.9-.1-5.7-.5-6.2-.8-.8-.5-1-4.6-.3-5.9 0-.1 55-.2 122.1-.2h122v3.3z"/></svg>